<svg version="1.1" id="Layer_1" xmlns="http://www.w3.org/2000/svg" xmlns:xlink="http://www.w3.org/1999/xlink" x="0px" y="0px"
	 width="100%" viewBox="200 290 620 420" enable-background="new 0 0 1024 1024" xml:space="preserve">
<path fill="none" opacity="1.000000" stroke="none" 
	d="
M480.000000,1025.000000 
	C320.000000,1025.000000 160.500000,1025.000000 1.000000,1025.000000 
	C1.000000,683.666687 1.000000,342.333344 1.000000,1.000000 
	C342.333344,1.000000 683.666687,1.000000 1025.000000,1.000000 
	C1025.000000,342.333344 1025.000000,683.666687 1025.000000,1025.000000 
	C843.500000,1025.000000 662.000000,1025.000000 480.000000,1025.000000 
M715.979065,519.971985 
	C715.979065,519.971985 715.929382,519.901917 715.389221,520.270569 
	C714.786255,521.407593 714.183289,522.544617 713.637512,523.782410 
	C713.637512,523.782410 713.687500,523.677856 713.196594,523.920166 
	C713.064148,524.258423 712.931702,524.596741 712.223938,525.281616 
	C711.142029,526.947266 710.020203,528.588440 708.985535,530.282837 
	C705.439087,536.090637 706.729187,542.385498 712.257019,546.403503 
	C717.990479,550.570923 724.335571,550.171997 728.607727,544.746887 
	C740.013123,530.263428 748.216431,514.182678 752.032349,495.238190 
	C751.995605,494.498413 751.958862,493.758606 752.034363,492.600800 
	C752.034363,492.600800 752.054199,492.168427 752.712402,491.751953 
	C755.380066,479.248566 756.026245,466.679871 754.042847,453.177734 
	C751.280518,431.323761 742.991516,411.712128 729.752991,394.206909 
	C725.020630,387.949280 717.968201,387.009552 712.252930,391.304626 
	C706.206055,395.848938 705.178101,402.708527 709.831360,409.281433 
	C718.170227,421.060333 723.955017,433.948761 727.138672,448.814972 
	C727.740845,452.544250 728.567993,456.253204 728.906311,460.006287 
	C730.396423,476.535522 727.638184,492.472473 721.968384,507.970642 
	C721.968384,507.970642 721.922485,507.896149 721.415527,508.318542 
	C721.159607,509.154633 720.903687,509.990723 720.774963,510.857086 
	C720.774963,510.857086 720.701416,510.748993 720.156921,511.158203 
	C718.958740,513.647278 717.760559,516.136414 716.583984,518.657593 
	C716.583984,518.657593 716.613892,518.682068 716.164185,518.950012 
	C716.074219,519.286011 715.984253,519.622009 715.979065,519.971985 
M301.150909,300.853485 
	C298.112793,301.948486 295.074707,303.043488 291.313629,304.147675 
	C237.793396,327.706451 210.417465,369.359406 206.037506,427.977539 
	C206.025558,514.801514 206.013107,601.625549 206.009262,688.449524 
	C206.009232,689.277954 206.123550,690.106384 206.066574,691.697693 
	C208.459274,706.435242 223.342270,712.257629 235.284241,701.907959 
	C238.164825,699.411499 241.054337,696.924744 243.968887,694.468140 
	C262.214661,679.089233 280.468689,663.720215 299.423279,648.160278 
	C299.985504,647.795532 300.547699,647.430847 301.027496,647.047180 
	C301.027496,647.047180 301.025024,647.131714 301.884583,647.043823 
	C305.674011,646.694214 309.463196,646.042725 313.252899,646.039673 
	C386.537445,645.980347 459.822662,646.137146 533.105835,645.816956 
	C542.067444,645.777832 551.018250,643.265076 560.756287,641.958984 
	C581.750488,636.571167 601.042908,627.495483 617.275818,613.133301 
	C647.070801,586.771912 665.500305,554.208801 668.960144,513.018555 
	C668.923950,485.696136 668.887756,458.373749 669.003357,430.137512 
	C667.007568,374.100128 629.412964,314.020752 563.373901,297.978119 
	C562.590332,297.771423 561.806824,297.564728 560.518738,297.094788 
	C560.331116,297.122681 560.143494,297.150574 559.171753,296.990173 
	C549.024048,295.662231 538.884094,293.260193 528.727295,293.186249 
	C475.630219,292.799652 422.528717,292.945953 369.429077,293.046661 
	C357.310059,293.069641 345.104584,292.861206 333.100006,294.201721 
	C322.561798,295.378448 312.249329,298.576477 301.947571,300.896362 
	C301.947571,300.896362 301.929108,300.786530 301.150909,300.853485 
M810.710938,447.179657 
	C809.799988,442.788300 808.889038,438.396973 808.078003,433.330566 
	C808.006348,432.884033 807.934631,432.437500 807.866699,431.306549 
	C807.530457,430.219055 807.194214,429.131561 806.877319,427.270355 
	C800.317200,402.023834 788.877563,379.267151 772.066040,359.277771 
	C766.378967,352.515625 759.250366,351.614777 752.904114,356.675873 
	C746.866821,361.490601 746.039734,370.268250 751.112793,376.687103 
	C764.224792,393.277252 773.697388,411.719360 779.691528,432.885254 
	C784.737732,450.996704 784.927063,469.417206 782.993530,488.633698 
	C783.024658,489.099762 783.055786,489.565857 782.876953,490.633392 
	C782.446655,493.066925 782.016296,495.500488 781.134460,498.523956 
	C778.320923,512.943848 773.391296,526.638550 765.945618,539.266296 
	C761.066101,547.541992 755.162781,555.207275 749.959045,563.300903 
	C746.033752,569.405945 747.698486,577.141113 753.464600,581.373779 
	C759.693054,585.945801 766.002991,585.407288 771.127014,579.469177 
	C786.955444,561.126343 798.258118,540.306641 805.074951,516.230225 
	C811.567200,494.228943 813.828674,471.863922 810.943542,448.506500 
	C810.889404,448.331329 810.835327,448.156158 810.710938,447.179657 
z"/>
<path fill="#1186FF" opacity="1.000000" stroke="none" 
	d="
M298.719910,648.347900 
	C280.468689,663.720215 262.214661,679.089233 243.968887,694.468140 
	C241.054337,696.924744 238.164825,699.411499 235.284241,701.907959 
	C223.342270,712.257629 208.459274,706.435242 206.385376,691.000793 
	C206.802292,689.316772 206.986145,688.329590 206.986313,687.342468 
	C207.001678,602.017029 207.006592,516.691589 206.973251,431.366150 
	C206.972687,429.933594 206.495941,428.501190 206.241409,427.068726 
	C210.417465,369.359406 237.793396,327.706451 291.913330,304.389740 
	C295.651733,303.350037 298.790405,302.068268 301.929108,300.786530 
	C301.929108,300.786530 301.947571,300.896362 302.317383,300.923615 
	C303.827240,300.788422 304.993439,300.729340 306.103271,300.447815 
	C320.611481,296.767487 335.241852,294.809753 350.312531,294.881378 
	C410.579956,295.167938 470.849854,294.901367 531.117859,295.113556 
	C539.163025,295.141876 547.197937,296.788513 555.248901,297.569427 
	C556.790771,297.718994 558.385498,297.322876 559.955872,297.178497 
	C560.143494,297.150574 560.331116,297.122681 560.835449,297.515411 
	C562.089233,298.009094 563.026306,298.082184 563.963318,298.155273 
	C629.412964,314.020752 667.007568,374.100128 668.659058,430.905151 
	C668.210571,432.321045 668.015808,432.969177 668.015320,433.617432 
	C667.998047,459.295227 667.988831,484.973053 668.028625,510.650787 
	C668.030334,511.743469 668.506714,512.835449 668.761902,513.927734 
	C665.500305,554.208801 647.070801,586.771912 617.275818,613.133301 
	C601.042908,627.495483 581.750488,636.571167 560.103271,641.663635 
	C558.324402,641.397217 557.189392,641.344116 556.074158,641.468445 
	C548.692505,642.291016 541.316956,643.870422 533.936096,643.888855 
	C460.510712,644.072266 387.084503,643.948425 313.659088,644.133850 
	C309.445251,644.144470 305.236267,646.087830 301.025024,647.131714 
	C301.025024,647.131714 301.027496,647.047180 300.710327,647.070312 
	C299.835449,647.511536 299.277679,647.929688 298.719910,648.347900 
M493.647552,392.642731 
	C493.020233,392.543152 492.392883,392.443542 491.882568,392.357483 
	C491.882568,392.357483 491.803894,392.445160 491.543610,391.683350 
	C489.970612,391.505341 488.397644,391.327301 486.970398,391.134613 
	C486.970398,391.134613 486.950378,391.279724 486.551819,390.584534 
	C483.484741,390.059479 480.418671,389.084137 477.350403,389.077179 
	C433.626221,388.977783 389.901733,388.997925 346.177399,389.051666 
	C344.454987,389.053772 342.733368,389.677338 340.154968,390.005035 
	C337.784302,390.574493 335.413666,391.143951 332.320679,391.998108 
	C314.451904,397.055023 303.992188,408.778534 300.036591,427.247864 
	C299.691315,428.450012 299.047302,429.651489 299.044678,430.854370 
	C298.986481,457.353058 298.862061,483.853394 299.152039,510.349030 
	C299.193817,514.166687 301.295044,517.961853 302.385315,521.865417 
	C302.385315,521.865417 302.300629,521.789368 302.154480,522.493286 
	C302.849609,523.642090 303.544769,524.790833 304.101227,525.934509 
	C304.101227,525.934509 304.142181,525.801941 304.062073,526.539673 
	C305.064423,527.984070 306.066803,529.428406 307.671326,531.187378 
	C313.730988,540.436890 322.650391,545.596008 333.404541,549.464905 
	C336.479950,549.976624 339.554413,550.927307 342.630920,550.934021 
	C387.027557,551.030396 431.424500,551.010986 475.821289,550.958313 
	C477.547150,550.956299 479.272278,550.344238 481.637756,549.657471 
	C483.161102,549.724731 484.931213,550.333801 486.167511,549.770752 
	C493.852478,546.270630 502.023285,543.789734 508.303711,537.502136 
	C515.268555,530.529358 518.495667,521.924377 521.339844,513.096741 
	C521.559082,512.059998 521.968445,511.023468 521.969849,509.986420 
	C522.005859,483.415466 521.999817,456.844513 521.997681,430.273529 
	C521.997559,429.277863 521.962830,428.282227 521.944275,427.286591 
	C521.576111,427.613464 521.207947,427.940338 520.363525,427.638641 
	C518.509521,411.860535 509.634979,401.190857 496.234253,393.635040 
	C495.421997,393.473907 494.609711,393.312775 493.936432,393.115936 
	C493.936432,393.115936 493.933044,393.259399 493.647552,392.642731 
M562.932861,521.580383 
	C567.192688,523.555725 571.283569,526.511108 575.751160,527.281250 
	C582.802185,528.496826 586.981140,524.050476 587.004700,516.865906 
	C587.021118,511.874298 586.998108,506.882568 587.000793,501.890900 
	C587.015076,475.601593 587.040222,449.312317 587.042603,423.023010 
	C587.043274,415.179779 583.645813,411.973389 575.790710,411.877899 
	C569.681091,411.803650 564.870605,414.451263 560.833008,418.632141 
	C553.325745,426.405701 545.997620,434.351837 538.558899,442.192047 
	C534.464233,446.507751 532.560730,451.608551 532.676880,457.533600 
	C532.830078,465.349457 533.112488,473.169617 532.985229,480.982147 
	C532.869934,488.060730 535.350281,494.108368 540.062744,499.032867 
	C547.296143,506.591736 554.949280,513.748962 562.932861,521.580383 
z"/>
<path fill="#1C95FF" opacity="1.000000" stroke="none" 
	d="
M779.452759,432.068848 
	C773.697388,411.719360 764.224792,393.277252 751.112793,376.687103 
	C746.039734,370.268250 746.866821,361.490601 752.904114,356.675873 
	C759.250366,351.614777 766.378967,352.515625 772.066040,359.277771 
	C788.877563,379.267151 800.317200,402.023834 806.626892,427.885956 
	C806.871948,429.664703 807.367432,430.827850 807.862915,431.990967 
	C807.934631,432.437500 808.006348,432.884033 807.751770,433.911530 
	C807.740295,437.209106 807.839844,439.974762 808.443176,442.625702 
	C808.867859,444.491516 809.977417,446.201477 810.781189,447.981018 
	C810.835327,448.156158 810.889404,448.331329 810.630127,449.084778 
	C810.541565,454.916840 811.340637,460.221680 810.879028,465.414459 
	C809.699341,478.686615 807.974976,491.910858 806.430969,505.149872 
	C805.970764,509.096161 805.386047,513.027954 804.858337,516.966370 
	C798.258118,540.306641 786.955444,561.126343 771.127014,579.469177 
	C766.002991,585.407288 759.693054,585.945801 753.464600,581.373779 
	C747.698486,577.141113 746.033752,569.405945 749.959045,563.300903 
	C755.162781,555.207275 761.066101,547.541992 765.945618,539.266296 
	C773.391296,526.638550 778.320923,512.943848 781.713928,498.087494 
	C782.557861,495.111328 782.822388,492.571625 783.086914,490.031921 
	C783.055786,489.565857 783.024658,489.099762 783.470703,488.195618 
	C784.628662,482.618317 786.164429,477.421051 785.820557,472.351318 
	C784.985046,460.035095 783.333923,447.770966 781.828735,435.508270 
	C781.678284,434.283051 780.274719,433.211639 779.452759,432.068848 
z"/>
<path fill="#1C95FF" opacity="1.000000" stroke="none" 
	d="
M751.861084,495.965271 
	C748.216431,514.182678 740.013123,530.263428 728.607727,544.746887 
	C724.335571,550.171997 717.990479,550.570923 712.257019,546.403503 
	C706.729187,542.385498 705.439087,536.090637 708.985535,530.282837 
	C710.020203,528.588440 711.142029,526.947266 712.773987,524.995483 
	C713.445190,524.365479 713.566345,524.021667 713.687500,523.677856 
	C713.687500,523.677856 713.637512,523.782410 713.985596,523.716064 
	C714.865540,522.400513 715.397461,521.151184 715.929382,519.901917 
	C715.929382,519.901917 715.979065,519.971985 716.180969,519.837158 
	C716.459900,519.362305 716.536865,519.022156 716.613892,518.682068 
	C716.613892,518.682068 716.583984,518.657593 716.948181,518.650513 
	C718.442078,516.012024 719.571777,513.380493 720.701416,510.749023 
	C720.701416,510.748993 720.774963,510.857086 721.052185,510.723633 
	C721.527100,509.692139 721.724792,508.794159 721.922485,507.896149 
	C721.922485,507.896149 721.968384,507.970642 722.257263,507.827393 
	C722.904114,507.345001 723.435791,507.072571 723.595154,506.657227 
	C730.779419,487.941193 733.228821,468.790741 728.705200,449.042053 
	C728.604370,448.601898 727.705261,448.344604 727.178589,448.002045 
	C723.955017,433.948761 718.170227,421.060333 709.831360,409.281433 
	C705.178101,402.708527 706.206055,395.848938 712.252930,391.304626 
	C717.968201,387.009552 725.020630,387.949280 729.752991,394.206909 
	C742.991516,411.712128 751.280518,431.323761 753.702393,453.893982 
	C753.240234,456.757690 752.966858,458.909485 753.027771,461.051788 
	C753.163940,465.836273 753.784973,470.627167 753.618713,475.394836 
	C753.423279,480.997406 752.603394,486.578186 752.054199,492.168427 
	C752.054199,492.168427 752.034363,492.600800 751.741150,492.989258 
	C751.585632,494.240234 751.723389,495.102753 751.861084,495.965271 
z"/>
<path fill="#0379FF" opacity="1.000000" stroke="none" 
	d="
M301.454803,647.087769 
	C305.236267,646.087830 309.445251,644.144470 313.659088,644.133850 
	C387.084503,643.948425 460.510712,644.072266 533.936096,643.888855 
	C541.316956,643.870422 548.692505,642.291016 556.074158,641.468445 
	C557.189392,641.344116 558.324402,641.397217 559.712158,641.633484 
	C551.018250,643.265076 542.067444,645.777832 533.105835,645.816956 
	C459.822662,646.137146 386.537445,645.980347 313.252899,646.039673 
	C309.463196,646.042725 305.674011,646.694214 301.454803,647.087769 
z"/>
<path fill="#0379FF" opacity="1.000000" stroke="none" 
	d="
M559.563843,297.084351 
	C558.385498,297.322876 556.790771,297.718994 555.248901,297.569427 
	C547.197937,296.788513 539.163025,295.141876 531.117859,295.113556 
	C470.849854,294.901367 410.579956,295.167938 350.312531,294.881378 
	C335.241852,294.809753 320.611481,296.767487 306.103271,300.447815 
	C304.993439,300.729340 303.827240,300.788422 302.262207,300.916321 
	C312.249329,298.576477 322.561798,295.378448 333.100006,294.201721 
	C345.104584,292.861206 357.310059,293.069641 369.429077,293.046661 
	C422.528717,292.945953 475.630219,292.799652 528.727295,293.186249 
	C538.884094,293.260193 549.024048,295.662231 559.563843,297.084351 
z"/>
<path fill="#0065FE" opacity="1.000000" stroke="none" 
	d="
M206.139465,427.523132 
	C206.495941,428.501190 206.972687,429.933594 206.973251,431.366150 
	C207.006592,516.691589 207.001678,602.017029 206.986313,687.342468 
	C206.986145,688.329590 206.802292,689.316772 206.444321,690.619385 
	C206.123550,690.106384 206.009232,689.277954 206.009262,688.449524 
	C206.013107,601.625549 206.025558,514.801514 206.139465,427.523132 
z"/>
<path fill="#1C95FF" opacity="1.000000" stroke="none" 
	d="
M727.158630,448.408508 
	C727.705261,448.344604 728.604370,448.601898 728.705200,449.042053 
	C733.228821,468.790741 730.779419,487.941193 723.595154,506.657227 
	C723.435791,507.072571 722.904114,507.345001 722.214111,507.819946 
	C727.638184,492.472473 730.396423,476.535522 728.906311,460.006287 
	C728.567993,456.253204 727.740845,452.544250 727.158630,448.408508 
z"/>
<path fill="#1186FF" opacity="1.000000" stroke="none" 
	d="
M804.966675,516.598267 
	C805.386047,513.027954 805.970764,509.096161 806.430969,505.149872 
	C807.974976,491.910858 809.699341,478.686615 810.879028,465.414459 
	C811.340637,460.221680 810.541565,454.916840 810.583435,449.355774 
	C813.828674,471.863922 811.567200,494.228943 804.966675,516.598267 
z"/>
<path fill="#0379FF" opacity="1.000000" stroke="none" 
	d="
M779.572144,432.477051 
	C780.274719,433.211639 781.678284,434.283051 781.828735,435.508270 
	C783.333923,447.770966 784.985046,460.035095 785.820557,472.351318 
	C786.164429,477.421051 784.628662,482.618317 783.571838,487.858734 
	C784.927063,469.417206 784.737732,450.996704 779.572144,432.477051 
z"/>
<path fill="#0065FE" opacity="1.000000" stroke="none" 
	d="
M668.861023,513.473145 
	C668.506714,512.835449 668.030334,511.743469 668.028625,510.650787 
	C667.988831,484.973053 667.998047,459.295227 668.015320,433.617432 
	C668.015808,432.969177 668.210571,432.321045 668.583130,431.362061 
	C668.887756,458.373749 668.923950,485.696136 668.861023,513.473145 
z"/>
<path fill="#1186FF" opacity="1.000000" stroke="none" 
	d="
M752.383301,491.960205 
	C752.603394,486.578186 753.423279,480.997406 753.618713,475.394836 
	C753.784973,470.627167 753.163940,465.836273 753.027771,461.051788 
	C752.966858,458.909485 753.240234,456.757690 753.646545,454.316406 
	C756.026245,466.679871 755.380066,479.248566 752.383301,491.960205 
z"/>
<path fill="#1186FF" opacity="1.000000" stroke="none" 
	d="
M810.746094,447.580322 
	C809.977417,446.201477 808.867859,444.491516 808.443176,442.625702 
	C807.839844,439.974762 807.740295,437.209106 807.701782,434.249054 
	C808.889038,438.396973 809.799988,442.788300 810.746094,447.580322 
z"/>
<path fill="#0379FF" opacity="1.000000" stroke="none" 
	d="
M301.540009,300.820007 
	C298.790405,302.068268 295.651733,303.350037 292.274841,304.385132 
	C295.074707,303.043488 298.112793,301.948486 301.540009,300.820007 
z"/>
<path fill="#1C95FF" opacity="1.000000" stroke="none" 
	d="
M720.429199,510.953613 
	C719.571777,513.380493 718.442078,516.012024 716.937378,518.634521 
	C717.760559,516.136414 718.958740,513.647278 720.429199,510.953613 
z"/>
<path fill="#0379FF" opacity="1.000000" stroke="none" 
	d="
M782.981934,490.332642 
	C782.822388,492.571625 782.557861,495.111328 781.939697,497.792542 
	C782.016296,495.500488 782.446655,493.066925 782.981934,490.332642 
z"/>
<path fill="#1C95FF" opacity="1.000000" stroke="none" 
	d="
M715.659302,520.086243 
	C715.397461,521.151184 714.865540,522.400513 713.957031,523.665710 
	C714.183289,522.544617 714.786255,521.407593 715.659302,520.086243 
z"/>
<path fill="#1186FF" opacity="1.000000" stroke="none" 
	d="
M807.864807,431.648743 
	C807.367432,430.827850 806.871948,429.664703 806.617188,428.272827 
	C807.194214,429.131561 807.530457,430.219055 807.864807,431.648743 
z"/>
<path fill="#0379FF" opacity="1.000000" stroke="none" 
	d="
M563.668579,298.066711 
	C563.026306,298.082184 562.089233,298.009094 561.087769,297.647034 
	C561.806824,297.564728 562.590332,297.771423 563.668579,298.066711 
z"/>
<path fill="#1C95FF" opacity="1.000000" stroke="none" 
	d="
M721.669006,508.107361 
	C721.724792,508.794159 721.527100,509.692139 720.988586,510.708496 
	C720.903687,509.990723 721.159607,509.154633 721.669006,508.107361 
z"/>
<path fill="#1186FF" opacity="1.000000" stroke="none" 
	d="
M751.946716,495.601746 
	C751.723389,495.102753 751.585632,494.240234 751.684998,493.198273 
	C751.958862,493.758606 751.995605,494.498413 751.946716,495.601746 
z"/>
<path fill="#0379FF" opacity="1.000000" stroke="none" 
	d="
M299.071594,648.254028 
	C299.277679,647.929688 299.835449,647.511536 300.751556,647.079712 
	C300.547699,647.430847 299.985504,647.795532 299.071594,648.254028 
z"/>
<path fill="#1C95FF" opacity="1.000000" stroke="none" 
	d="
M716.389038,518.816040 
	C716.536865,519.022156 716.459900,519.362305 716.138550,519.830200 
	C715.984253,519.622009 716.074219,519.286011 716.389038,518.816040 
z"/>
<path fill="#1C95FF" opacity="1.000000" stroke="none" 
	d="
M713.442017,523.799011 
	C713.566345,524.021667 713.445190,524.365479 713.061646,524.822144 
	C712.931702,524.596741 713.064148,524.258423 713.442017,523.799011 
z"/>
<path fill="none" opacity="1.000000" stroke="none" 
	d="
M520.820923,512.740356 
	C518.495667,521.924377 515.268555,530.529358 508.303711,537.502136 
	C502.023285,543.789734 493.852478,546.270630 486.167511,549.770752 
	C484.931213,550.333801 483.161102,549.724731 480.854675,549.757935 
	C470.918579,549.848450 461.765106,549.890625 452.612518,549.819458 
	C412.712372,549.509277 372.812439,549.166077 332.912445,548.834839 
	C322.650391,545.596008 313.730988,540.436890 307.281250,530.710083 
	C305.974823,528.755859 305.058502,527.278870 304.142181,525.801941 
	C304.142181,525.801941 304.101227,525.934509 304.114014,525.595703 
	C303.518066,524.101074 302.909332,522.945190 302.300629,521.789368 
	C302.300629,521.789368 302.385315,521.865417 302.425659,521.404907 
	C301.701416,516.395264 300.317505,511.851776 300.275970,507.296051 
	C300.057556,483.343719 300.158356,459.388245 300.208344,435.433990 
	C300.214172,432.634216 300.589783,429.835236 300.794006,427.035889 
	C303.992188,408.778534 314.451904,397.055023 333.071350,391.845886 
	C336.191528,391.413055 338.561035,391.132446 341.400696,390.912354 
	C357.930328,390.881622 373.989746,390.790314 390.501373,390.739319 
	C394.283417,390.750702 397.613281,390.721771 401.402649,390.812256 
	C411.988861,390.954193 422.115814,391.031128 432.242218,390.985931 
	C445.843079,390.925171 459.443542,390.770050 473.361481,390.687195 
	C474.101624,390.685120 474.524414,390.651276 475.358154,390.740906 
	C477.193634,390.855133 478.618195,390.845947 480.471893,390.885071 
	C482.917450,391.048798 484.933929,391.164246 486.950378,391.279724 
	C486.950378,391.279724 486.970398,391.134613 487.133484,391.445099 
	C488.799011,391.985443 490.301453,392.215302 491.803894,392.445160 
	C491.803894,392.445160 491.882568,392.357483 491.986450,392.614563 
	C492.704559,393.000916 493.318817,393.130157 493.933044,393.259399 
	C493.933044,393.259399 493.936432,393.115936 494.034332,393.392029 
	C494.727783,393.793457 495.323334,393.918762 495.918884,394.044067 
	C509.634979,401.190857 518.509521,411.860535 520.591064,428.402771 
	C520.819397,457.024719 520.820190,484.882538 520.820923,512.740356 
z"/>
<path fill="none" opacity="1.000000" stroke="none" 
	d="
M562.678589,521.328491 
	C554.949280,513.748962 547.296143,506.591736 540.062744,499.032867 
	C535.350281,494.108368 532.869934,488.060730 532.985229,480.982147 
	C533.112488,473.169617 532.830078,465.349457 532.676880,457.533600 
	C532.560730,451.608551 534.464233,446.507751 538.558899,442.192047 
	C545.997620,434.351837 553.325745,426.405701 560.833008,418.632141 
	C564.870605,414.451263 569.681091,411.803650 575.790710,411.877899 
	C583.645813,411.973389 587.043274,415.179779 587.042603,423.023010 
	C587.040222,449.312317 587.015076,475.601593 587.000793,501.890900 
	C586.998108,506.882568 587.021118,511.874298 587.004700,516.865906 
	C586.981140,524.050476 582.802185,528.496826 575.751160,527.281250 
	C571.283569,526.511108 567.192688,523.555725 562.678589,521.328491 
z"/>
<path fill="#0065FE" opacity="1.000000" stroke="none" 
	d="
M400.943146,390.692841 
	C397.613281,390.721771 394.283417,390.750702 390.159210,390.504120 
	C373.249756,390.158936 357.134613,390.089233 341.014771,390.014832 
	C341.010010,390.010101 341.011383,390.011353 341.011383,390.011353 
	C342.733368,389.677338 344.454987,389.053772 346.177399,389.051666 
	C389.901733,388.997925 433.626221,388.977783 477.350403,389.077179 
	C480.418671,389.084137 483.484741,390.059479 486.751099,390.932129 
	C484.933929,391.164246 482.917450,391.048798 480.210999,390.662903 
	C477.996429,390.467438 476.471832,390.542450 474.947235,390.617462 
	C474.524414,390.651276 474.101624,390.685120 473.014282,390.461853 
	C449.154755,390.142120 425.959686,390.074341 402.764618,390.045380 
	C402.157715,390.044617 401.550323,390.467499 400.943146,390.692841 
z"/>
<path fill="#0065FE" opacity="1.000000" stroke="none" 
	d="
M333.158508,549.149902 
	C372.812439,549.166077 412.712372,549.509277 452.612518,549.819458 
	C461.765106,549.890625 470.918579,549.848450 480.534668,549.937439 
	C479.272278,550.344238 477.547150,550.956299 475.821289,550.958313 
	C431.424500,551.010986 387.027557,551.030396 342.630920,550.934021 
	C339.554413,550.927307 336.479950,549.976624 333.158508,549.149902 
z"/>
<path fill="#0065FE" opacity="1.000000" stroke="none" 
	d="
M300.415283,427.141876 
	C300.589783,429.835236 300.214172,432.634216 300.208344,435.433990 
	C300.158356,459.388245 300.057556,483.343719 300.275970,507.296051 
	C300.317505,511.851776 301.701416,516.395264 302.454590,521.355896 
	C301.295044,517.961853 299.193817,514.166687 299.152039,510.349030 
	C298.862061,483.853394 298.986481,457.353058 299.044678,430.854370 
	C299.047302,429.651489 299.691315,428.450012 300.415283,427.141876 
z"/>
<path fill="#0065FE" opacity="1.000000" stroke="none" 
	d="
M521.080383,512.918579 
	C520.820190,484.882538 520.819397,457.024719 520.829224,428.717041 
	C521.207947,427.940338 521.576111,427.613464 521.944275,427.286560 
	C521.962830,428.282227 521.997559,429.277863 521.997681,430.273529 
	C521.999817,456.844513 522.005859,483.415466 521.969849,509.986420 
	C521.968445,511.023468 521.559082,512.059998 521.080383,512.918579 
z"/>
<path fill="#0065FE" opacity="1.000000" stroke="none" 
	d="
M304.102112,526.170776 
	C305.058502,527.278870 305.974823,528.755859 306.980164,530.552795 
	C306.066803,529.428406 305.064423,527.984070 304.102112,526.170776 
z"/>
<path fill="#0065FE" opacity="1.000000" stroke="none" 
	d="
M340.930542,390.851837 
	C338.561035,391.132446 336.191528,391.413055 333.432495,391.703552 
	C335.413666,391.143951 337.784302,390.574493 340.583191,390.008179 
	C341.011383,390.011353 341.010010,390.010101 341.001526,390.223755 
	C340.993042,390.437378 340.930542,390.851837 340.930542,390.851837 
z"/>
<path fill="#0065FE" opacity="1.000000" stroke="none" 
	d="
M302.227539,522.141357 
	C302.909332,522.945190 303.518066,524.101074 304.183350,525.598267 
	C303.544769,524.790833 302.849609,523.642090 302.227539,522.141357 
z"/>
<path fill="#0065FE" opacity="1.000000" stroke="none" 
	d="
M491.673767,392.064270 
	C490.301453,392.215302 488.799011,391.985443 487.060608,391.452423 
	C488.397644,391.327301 489.970612,391.505341 491.673767,392.064270 
z"/>
<path fill="#0065FE" opacity="1.000000" stroke="none" 
	d="
M496.076569,393.839539 
	C495.323334,393.918762 494.727783,393.793457 493.964844,393.409882 
	C494.609711,393.312775 495.421997,393.473907 496.076569,393.839539 
z"/>
<path fill="#0065FE" opacity="1.000000" stroke="none" 
	d="
M493.790283,392.951050 
	C493.318817,393.130157 492.704559,393.000916 491.927948,392.607819 
	C492.392883,392.443542 493.020233,392.543152 493.790283,392.951050 
z"/>
<path fill="#42A2FF" opacity="1.000000" stroke="none" 
	d="
M401.402649,390.812256 
	C401.550323,390.467499 402.157715,390.044617 402.764618,390.045380 
	C425.959686,390.074341 449.154755,390.142120 472.696960,390.430115 
	C459.443542,390.770050 445.843079,390.925171 432.242218,390.985931 
	C422.115814,391.031128 411.988861,390.954193 401.402649,390.812256 
z"/>
<path fill="#42A2FF" opacity="1.000000" stroke="none" 
	d="
M341.400696,390.912354 
	C340.930542,390.851837 340.993042,390.437378 341.006287,390.228455 
	C357.134613,390.089233 373.249756,390.158936 389.707031,390.463837 
	C373.989746,390.790314 357.930328,390.881622 341.400696,390.912354 
z"/>
<path fill="#42A2FF" opacity="1.000000" stroke="none" 
	d="
M475.358154,390.740906 
	C476.471832,390.542450 477.996429,390.467438 479.781921,390.614624 
	C478.618195,390.845947 477.193634,390.855133 475.358154,390.740906 
z"/>
</svg>